<mxfile host="app.diagrams.net" agent="Mozilla/5.0 (Windows NT 10.0; Win64; x64) AppleWebKit/537.36 (KHTML, like Gecko) Chrome/128.0.0.0 Safari/537.36" version="24.7.7" pages="2">
  <diagram name="Página-1" id="X_IHQv0cR300RqiqEAiJ">
    <mxGraphModel dx="880" dy="468" grid="1" gridSize="10" guides="1" tooltips="1" connect="1" arrows="1" fold="1" page="1" pageScale="1" pageWidth="1200" pageHeight="1920" background="none" math="0" shadow="0">
      <root>
        <mxCell id="0" />
        <mxCell id="1" parent="0" />
        <mxCell id="hwkElHUtdUNLlA2syL91-48" style="edgeStyle=none;shape=connector;rounded=0;orthogonalLoop=1;jettySize=auto;html=1;entryX=0.5;entryY=0;entryDx=0;entryDy=0;strokeColor=default;align=center;verticalAlign=middle;fontFamily=Helvetica;fontSize=11;fontColor=default;labelBackgroundColor=default;endArrow=none;endFill=0;" edge="1" parent="1" source="hwkElHUtdUNLlA2syL91-1" target="hwkElHUtdUNLlA2syL91-12">
          <mxGeometry relative="1" as="geometry" />
        </mxCell>
        <mxCell id="hwkElHUtdUNLlA2syL91-1" value="Empresa" style="rounded=0;whiteSpace=wrap;html=1;" vertex="1" parent="1">
          <mxGeometry x="125" y="150" width="110" height="60" as="geometry" />
        </mxCell>
        <mxCell id="hwkElHUtdUNLlA2syL91-58" style="edgeStyle=none;shape=connector;rounded=0;orthogonalLoop=1;jettySize=auto;html=1;entryX=0;entryY=0.5;entryDx=0;entryDy=0;strokeColor=default;align=center;verticalAlign=middle;fontFamily=Helvetica;fontSize=11;fontColor=default;labelBackgroundColor=default;endArrow=none;endFill=0;" edge="1" parent="1" source="hwkElHUtdUNLlA2syL91-3" target="hwkElHUtdUNLlA2syL91-21">
          <mxGeometry relative="1" as="geometry" />
        </mxCell>
        <mxCell id="hwkElHUtdUNLlA2syL91-3" value="Cliente" style="rounded=0;whiteSpace=wrap;html=1;" vertex="1" parent="1">
          <mxGeometry x="120" y="360" width="120" height="60" as="geometry" />
        </mxCell>
        <mxCell id="hwkElHUtdUNLlA2syL91-4" value="Nome" style="ellipse;whiteSpace=wrap;html=1;" vertex="1" parent="1">
          <mxGeometry x="120" y="510" width="60" height="50" as="geometry" />
        </mxCell>
        <mxCell id="hwkElHUtdUNLlA2syL91-52" style="edgeStyle=none;shape=connector;rounded=0;orthogonalLoop=1;jettySize=auto;html=1;entryX=1;entryY=1;entryDx=0;entryDy=0;strokeColor=default;align=center;verticalAlign=middle;fontFamily=Helvetica;fontSize=11;fontColor=default;labelBackgroundColor=default;endArrow=none;endFill=0;" edge="1" parent="1" source="hwkElHUtdUNLlA2syL91-6" target="hwkElHUtdUNLlA2syL91-3">
          <mxGeometry relative="1" as="geometry" />
        </mxCell>
        <mxCell id="hwkElHUtdUNLlA2syL91-6" value="Cidade" style="ellipse;whiteSpace=wrap;html=1;" vertex="1" parent="1">
          <mxGeometry x="260" y="445" width="60" height="50" as="geometry" />
        </mxCell>
        <mxCell id="hwkElHUtdUNLlA2syL91-54" style="edgeStyle=none;shape=connector;rounded=0;orthogonalLoop=1;jettySize=auto;html=1;entryX=0;entryY=0.5;entryDx=0;entryDy=0;strokeColor=default;align=center;verticalAlign=middle;fontFamily=Helvetica;fontSize=11;fontColor=default;labelBackgroundColor=default;endArrow=none;endFill=0;" edge="1" parent="1" source="hwkElHUtdUNLlA2syL91-7" target="hwkElHUtdUNLlA2syL91-3">
          <mxGeometry relative="1" as="geometry" />
        </mxCell>
        <mxCell id="hwkElHUtdUNLlA2syL91-7" value="Telefone" style="ellipse;whiteSpace=wrap;html=1;" vertex="1" parent="1">
          <mxGeometry x="30" y="495" width="60" height="60" as="geometry" />
        </mxCell>
        <mxCell id="hwkElHUtdUNLlA2syL91-8" value="CEP" style="ellipse;whiteSpace=wrap;html=1;" vertex="1" parent="1">
          <mxGeometry x="220" y="505" width="60" height="55" as="geometry" />
        </mxCell>
        <mxCell id="hwkElHUtdUNLlA2syL91-56" style="edgeStyle=none;shape=connector;rounded=0;orthogonalLoop=1;jettySize=auto;html=1;entryX=1;entryY=0.5;entryDx=0;entryDy=0;strokeColor=default;align=center;verticalAlign=middle;fontFamily=Helvetica;fontSize=11;fontColor=default;labelBackgroundColor=default;endArrow=none;endFill=0;" edge="1" parent="1" source="hwkElHUtdUNLlA2syL91-9" target="hwkElHUtdUNLlA2syL91-3">
          <mxGeometry relative="1" as="geometry" />
        </mxCell>
        <mxCell id="hwkElHUtdUNLlA2syL91-9" value="Estado" style="ellipse;whiteSpace=wrap;html=1;" vertex="1" parent="1">
          <mxGeometry x="360" y="465" width="60" height="60" as="geometry" />
        </mxCell>
        <mxCell id="hwkElHUtdUNLlA2syL91-10" value="Endereço" style="ellipse;whiteSpace=wrap;html=1;" vertex="1" parent="1">
          <mxGeometry x="170" y="442.5" width="60" height="55" as="geometry" />
        </mxCell>
        <mxCell id="hwkElHUtdUNLlA2syL91-11" value="CNPJ" style="ellipse;whiteSpace=wrap;html=1;" vertex="1" parent="1">
          <mxGeometry x="90" y="440" width="60" height="50" as="geometry" />
        </mxCell>
        <mxCell id="hwkElHUtdUNLlA2syL91-49" style="edgeStyle=none;shape=connector;rounded=0;orthogonalLoop=1;jettySize=auto;html=1;entryX=0.5;entryY=0;entryDx=0;entryDy=0;strokeColor=default;align=center;verticalAlign=middle;fontFamily=Helvetica;fontSize=11;fontColor=default;labelBackgroundColor=default;endArrow=none;endFill=0;" edge="1" parent="1" source="hwkElHUtdUNLlA2syL91-12" target="hwkElHUtdUNLlA2syL91-3">
          <mxGeometry relative="1" as="geometry" />
        </mxCell>
        <mxCell id="hwkElHUtdUNLlA2syL91-66" style="edgeStyle=none;shape=connector;rounded=0;orthogonalLoop=1;jettySize=auto;html=1;entryX=0;entryY=0.5;entryDx=0;entryDy=0;strokeColor=default;align=center;verticalAlign=middle;fontFamily=Helvetica;fontSize=11;fontColor=default;labelBackgroundColor=default;endArrow=none;endFill=0;" edge="1" parent="1" source="hwkElHUtdUNLlA2syL91-12" target="hwkElHUtdUNLlA2syL91-27">
          <mxGeometry relative="1" as="geometry" />
        </mxCell>
        <mxCell id="hwkElHUtdUNLlA2syL91-12" value="Compra" style="rhombus;whiteSpace=wrap;html=1;" vertex="1" parent="1">
          <mxGeometry x="140" y="255" width="80" height="80" as="geometry" />
        </mxCell>
        <mxCell id="hwkElHUtdUNLlA2syL91-63" style="edgeStyle=none;shape=connector;rounded=0;orthogonalLoop=1;jettySize=auto;html=1;entryX=1;entryY=0;entryDx=0;entryDy=0;strokeColor=default;align=center;verticalAlign=middle;fontFamily=Helvetica;fontSize=11;fontColor=default;labelBackgroundColor=default;endArrow=none;endFill=0;" edge="1" parent="1" source="hwkElHUtdUNLlA2syL91-14" target="hwkElHUtdUNLlA2syL91-18">
          <mxGeometry relative="1" as="geometry" />
        </mxCell>
        <mxCell id="hwkElHUtdUNLlA2syL91-14" value="Data" style="ellipse;whiteSpace=wrap;html=1;" vertex="1" parent="1">
          <mxGeometry x="845" y="270" width="70" height="70" as="geometry" />
        </mxCell>
        <mxCell id="hwkElHUtdUNLlA2syL91-64" style="edgeStyle=none;shape=connector;rounded=0;orthogonalLoop=1;jettySize=auto;html=1;entryX=1;entryY=1;entryDx=0;entryDy=0;strokeColor=default;align=center;verticalAlign=middle;fontFamily=Helvetica;fontSize=11;fontColor=default;labelBackgroundColor=default;endArrow=none;endFill=0;" edge="1" parent="1" source="hwkElHUtdUNLlA2syL91-15" target="hwkElHUtdUNLlA2syL91-18">
          <mxGeometry relative="1" as="geometry" />
        </mxCell>
        <mxCell id="hwkElHUtdUNLlA2syL91-15" value="Quantidade" style="ellipse;whiteSpace=wrap;html=1;" vertex="1" parent="1">
          <mxGeometry x="855" y="405" width="60" height="60" as="geometry" />
        </mxCell>
        <mxCell id="hwkElHUtdUNLlA2syL91-60" style="edgeStyle=none;shape=connector;rounded=0;orthogonalLoop=1;jettySize=auto;html=1;entryX=0;entryY=1;entryDx=0;entryDy=0;strokeColor=default;align=center;verticalAlign=middle;fontFamily=Helvetica;fontSize=11;fontColor=default;labelBackgroundColor=default;endArrow=none;endFill=0;" edge="1" parent="1" source="hwkElHUtdUNLlA2syL91-16" target="hwkElHUtdUNLlA2syL91-18">
          <mxGeometry relative="1" as="geometry" />
        </mxCell>
        <mxCell id="hwkElHUtdUNLlA2syL91-16" value="Nome" style="ellipse;whiteSpace=wrap;html=1;" vertex="1" parent="1">
          <mxGeometry x="600" y="415" width="60" height="50" as="geometry" />
        </mxCell>
        <mxCell id="hwkElHUtdUNLlA2syL91-62" style="edgeStyle=none;shape=connector;rounded=0;orthogonalLoop=1;jettySize=auto;html=1;entryX=0.5;entryY=0;entryDx=0;entryDy=0;strokeColor=default;align=center;verticalAlign=middle;fontFamily=Helvetica;fontSize=11;fontColor=default;labelBackgroundColor=default;endArrow=none;endFill=0;" edge="1" parent="1" source="hwkElHUtdUNLlA2syL91-17" target="hwkElHUtdUNLlA2syL91-18">
          <mxGeometry relative="1" as="geometry" />
        </mxCell>
        <mxCell id="hwkElHUtdUNLlA2syL91-17" value="Valor" style="ellipse;whiteSpace=wrap;html=1;" vertex="1" parent="1">
          <mxGeometry x="725" y="230" width="70" height="70" as="geometry" />
        </mxCell>
        <mxCell id="hwkElHUtdUNLlA2syL91-18" value="Pedido de compra" style="rounded=0;whiteSpace=wrap;html=1;" vertex="1" parent="1">
          <mxGeometry x="700" y="360" width="120" height="60" as="geometry" />
        </mxCell>
        <mxCell id="hwkElHUtdUNLlA2syL91-61" style="edgeStyle=none;shape=connector;rounded=0;orthogonalLoop=1;jettySize=auto;html=1;entryX=0;entryY=0;entryDx=0;entryDy=0;strokeColor=default;align=center;verticalAlign=middle;fontFamily=Helvetica;fontSize=11;fontColor=default;labelBackgroundColor=default;endArrow=none;endFill=0;" edge="1" parent="1" source="hwkElHUtdUNLlA2syL91-20" target="hwkElHUtdUNLlA2syL91-18">
          <mxGeometry relative="1" as="geometry" />
        </mxCell>
        <mxCell id="hwkElHUtdUNLlA2syL91-20" value="Código da droga" style="ellipse;whiteSpace=wrap;html=1;align=center;" vertex="1" parent="1">
          <mxGeometry x="600" y="280" width="70" height="60" as="geometry" />
        </mxCell>
        <mxCell id="hwkElHUtdUNLlA2syL91-59" style="edgeStyle=none;shape=connector;rounded=0;orthogonalLoop=1;jettySize=auto;html=1;entryX=0;entryY=0.5;entryDx=0;entryDy=0;strokeColor=default;align=center;verticalAlign=middle;fontFamily=Helvetica;fontSize=11;fontColor=default;labelBackgroundColor=default;endArrow=none;endFill=0;" edge="1" parent="1" source="hwkElHUtdUNLlA2syL91-21" target="hwkElHUtdUNLlA2syL91-18">
          <mxGeometry relative="1" as="geometry" />
        </mxCell>
        <mxCell id="hwkElHUtdUNLlA2syL91-21" value="Faz" style="rhombus;whiteSpace=wrap;html=1;" vertex="1" parent="1">
          <mxGeometry x="370" y="360" width="80" height="80" as="geometry" />
        </mxCell>
        <mxCell id="hwkElHUtdUNLlA2syL91-65" style="edgeStyle=none;shape=connector;rounded=0;orthogonalLoop=1;jettySize=auto;html=1;entryX=0.5;entryY=1;entryDx=0;entryDy=0;strokeColor=default;align=center;verticalAlign=middle;fontFamily=Helvetica;fontSize=11;fontColor=default;labelBackgroundColor=default;endArrow=none;endFill=0;" edge="1" parent="1" source="hwkElHUtdUNLlA2syL91-25" target="hwkElHUtdUNLlA2syL91-18">
          <mxGeometry relative="1" as="geometry" />
        </mxCell>
        <mxCell id="hwkElHUtdUNLlA2syL91-25" value="Valor total" style="ellipse;whiteSpace=wrap;html=1;align=center;dashed=1;" vertex="1" parent="1">
          <mxGeometry x="710" y="465" width="100" height="40" as="geometry" />
        </mxCell>
        <mxCell id="hwkElHUtdUNLlA2syL91-27" value="Medicamento" style="rounded=0;whiteSpace=wrap;html=1;" vertex="1" parent="1">
          <mxGeometry x="280" y="265" width="120" height="60" as="geometry" />
        </mxCell>
        <mxCell id="hwkElHUtdUNLlA2syL91-28" value="Nome" style="ellipse;whiteSpace=wrap;html=1;" vertex="1" parent="1">
          <mxGeometry x="450" y="300" width="70" height="70" as="geometry" />
        </mxCell>
        <mxCell id="hwkElHUtdUNLlA2syL91-29" value="Genérico ou de marca" style="ellipse;whiteSpace=wrap;html=1;" vertex="1" parent="1">
          <mxGeometry x="290" y="120" width="70" height="60" as="geometry" />
        </mxCell>
        <mxCell id="hwkElHUtdUNLlA2syL91-30" value="Tarja" style="ellipse;whiteSpace=wrap;html=1;" vertex="1" parent="1">
          <mxGeometry x="380" y="100" width="70" height="70" as="geometry" />
        </mxCell>
        <mxCell id="hwkElHUtdUNLlA2syL91-32" value="Pincípio Ativo" style="ellipse;whiteSpace=wrap;html=1;" vertex="1" parent="1">
          <mxGeometry x="455" y="240" width="60" height="50" as="geometry" />
        </mxCell>
        <mxCell id="hwkElHUtdUNLlA2syL91-33" value="Nome do lab" style="ellipse;whiteSpace=wrap;html=1;" vertex="1" parent="1">
          <mxGeometry x="380" y="200" width="60" height="50" as="geometry" />
        </mxCell>
        <mxCell id="hwkElHUtdUNLlA2syL91-34" value="Data de validade" style="ellipse;whiteSpace=wrap;html=1;" vertex="1" parent="1">
          <mxGeometry x="265" y="195" width="60" height="60" as="geometry" />
        </mxCell>
        <mxCell id="hwkElHUtdUNLlA2syL91-42" style="rounded=0;orthogonalLoop=1;jettySize=auto;html=1;entryX=0.729;entryY=0.967;entryDx=0;entryDy=0;entryPerimeter=0;endArrow=none;endFill=0;" edge="1" parent="1" source="hwkElHUtdUNLlA2syL91-27" target="hwkElHUtdUNLlA2syL91-29">
          <mxGeometry relative="1" as="geometry" />
        </mxCell>
        <mxCell id="hwkElHUtdUNLlA2syL91-43" style="edgeStyle=none;shape=connector;rounded=0;orthogonalLoop=1;jettySize=auto;html=1;entryX=0.983;entryY=0.767;entryDx=0;entryDy=0;entryPerimeter=0;strokeColor=default;align=center;verticalAlign=middle;fontFamily=Helvetica;fontSize=11;fontColor=default;labelBackgroundColor=default;endArrow=none;endFill=0;" edge="1" parent="1" source="hwkElHUtdUNLlA2syL91-27" target="hwkElHUtdUNLlA2syL91-34">
          <mxGeometry relative="1" as="geometry" />
        </mxCell>
        <mxCell id="hwkElHUtdUNLlA2syL91-44" style="edgeStyle=none;shape=connector;rounded=0;orthogonalLoop=1;jettySize=auto;html=1;entryX=0.283;entryY=0.94;entryDx=0;entryDy=0;entryPerimeter=0;strokeColor=default;align=center;verticalAlign=middle;fontFamily=Helvetica;fontSize=11;fontColor=default;labelBackgroundColor=default;endArrow=none;endFill=0;" edge="1" parent="1" source="hwkElHUtdUNLlA2syL91-27" target="hwkElHUtdUNLlA2syL91-33">
          <mxGeometry relative="1" as="geometry" />
        </mxCell>
        <mxCell id="hwkElHUtdUNLlA2syL91-45" style="edgeStyle=none;shape=connector;rounded=0;orthogonalLoop=1;jettySize=auto;html=1;entryX=0.286;entryY=0.971;entryDx=0;entryDy=0;entryPerimeter=0;strokeColor=default;align=center;verticalAlign=middle;fontFamily=Helvetica;fontSize=11;fontColor=default;labelBackgroundColor=default;endArrow=none;endFill=0;" edge="1" parent="1" source="hwkElHUtdUNLlA2syL91-27" target="hwkElHUtdUNLlA2syL91-30">
          <mxGeometry relative="1" as="geometry" />
        </mxCell>
        <mxCell id="hwkElHUtdUNLlA2syL91-46" style="edgeStyle=none;shape=connector;rounded=0;orthogonalLoop=1;jettySize=auto;html=1;entryX=0.05;entryY=0.64;entryDx=0;entryDy=0;entryPerimeter=0;strokeColor=default;align=center;verticalAlign=middle;fontFamily=Helvetica;fontSize=11;fontColor=default;labelBackgroundColor=default;endArrow=none;endFill=0;" edge="1" parent="1" source="hwkElHUtdUNLlA2syL91-27" target="hwkElHUtdUNLlA2syL91-32">
          <mxGeometry relative="1" as="geometry" />
        </mxCell>
        <mxCell id="hwkElHUtdUNLlA2syL91-47" style="edgeStyle=none;shape=connector;rounded=0;orthogonalLoop=1;jettySize=auto;html=1;entryX=0.043;entryY=0.257;entryDx=0;entryDy=0;entryPerimeter=0;strokeColor=default;align=center;verticalAlign=middle;fontFamily=Helvetica;fontSize=11;fontColor=default;labelBackgroundColor=default;endArrow=none;endFill=0;" edge="1" parent="1" source="hwkElHUtdUNLlA2syL91-27" target="hwkElHUtdUNLlA2syL91-28">
          <mxGeometry relative="1" as="geometry" />
        </mxCell>
        <mxCell id="hwkElHUtdUNLlA2syL91-50" style="edgeStyle=none;shape=connector;rounded=0;orthogonalLoop=1;jettySize=auto;html=1;entryX=0.675;entryY=1;entryDx=0;entryDy=0;entryPerimeter=0;strokeColor=default;align=center;verticalAlign=middle;fontFamily=Helvetica;fontSize=11;fontColor=default;labelBackgroundColor=default;endArrow=none;endFill=0;" edge="1" parent="1" source="hwkElHUtdUNLlA2syL91-10" target="hwkElHUtdUNLlA2syL91-3">
          <mxGeometry relative="1" as="geometry" />
        </mxCell>
        <mxCell id="hwkElHUtdUNLlA2syL91-51" style="edgeStyle=none;shape=connector;rounded=0;orthogonalLoop=1;jettySize=auto;html=1;entryX=0.092;entryY=1.067;entryDx=0;entryDy=0;entryPerimeter=0;strokeColor=default;align=center;verticalAlign=middle;fontFamily=Helvetica;fontSize=11;fontColor=default;labelBackgroundColor=default;endArrow=none;endFill=0;" edge="1" parent="1" source="hwkElHUtdUNLlA2syL91-11" target="hwkElHUtdUNLlA2syL91-3">
          <mxGeometry relative="1" as="geometry" />
        </mxCell>
        <mxCell id="hwkElHUtdUNLlA2syL91-53" style="edgeStyle=none;shape=connector;rounded=0;orthogonalLoop=1;jettySize=auto;html=1;entryX=0.342;entryY=1.033;entryDx=0;entryDy=0;entryPerimeter=0;strokeColor=default;align=center;verticalAlign=middle;fontFamily=Helvetica;fontSize=11;fontColor=default;labelBackgroundColor=default;endArrow=none;endFill=0;" edge="1" parent="1" source="hwkElHUtdUNLlA2syL91-4" target="hwkElHUtdUNLlA2syL91-3">
          <mxGeometry relative="1" as="geometry" />
        </mxCell>
        <mxCell id="hwkElHUtdUNLlA2syL91-57" style="edgeStyle=none;shape=connector;rounded=0;orthogonalLoop=1;jettySize=auto;html=1;entryX=0.933;entryY=1.05;entryDx=0;entryDy=0;entryPerimeter=0;strokeColor=default;align=center;verticalAlign=middle;fontFamily=Helvetica;fontSize=11;fontColor=default;labelBackgroundColor=default;endArrow=none;endFill=0;" edge="1" parent="1" source="hwkElHUtdUNLlA2syL91-8" target="hwkElHUtdUNLlA2syL91-3">
          <mxGeometry relative="1" as="geometry" />
        </mxCell>
      </root>
    </mxGraphModel>
  </diagram>
  <diagram id="RnpLKMqltvVxF0tcgqBu" name="Página-2">
    <mxGraphModel dx="880" dy="468" grid="1" gridSize="10" guides="1" tooltips="1" connect="1" arrows="1" fold="1" page="1" pageScale="1" pageWidth="1200" pageHeight="1920" math="0" shadow="0">
      <root>
        <mxCell id="0" />
        <mxCell id="1" parent="0" />
        <mxCell id="ttmxEoekRQ3XpxWOoWBI-1" value="Check-in" style="rounded=0;whiteSpace=wrap;html=1;fontFamily=Helvetica;fontSize=11;fontColor=default;labelBackgroundColor=default;" vertex="1" parent="1">
          <mxGeometry x="60" y="190" width="120" height="60" as="geometry" />
        </mxCell>
        <mxCell id="ttmxEoekRQ3XpxWOoWBI-3" value="Faz" style="shape=rhombus;perimeter=rhombusPerimeter;whiteSpace=wrap;html=1;align=center;fontFamily=Helvetica;fontSize=11;fontColor=default;labelBackgroundColor=default;" vertex="1" parent="1">
          <mxGeometry x="50" y="290" width="120" height="60" as="geometry" />
        </mxCell>
        <mxCell id="ttmxEoekRQ3XpxWOoWBI-19" style="edgeStyle=none;shape=connector;rounded=0;orthogonalLoop=1;jettySize=auto;html=1;entryX=0.5;entryY=1;entryDx=0;entryDy=0;strokeColor=default;align=center;verticalAlign=middle;fontFamily=Helvetica;fontSize=11;fontColor=default;labelBackgroundColor=default;endArrow=none;endFill=0;" edge="1" parent="1" source="ttmxEoekRQ3XpxWOoWBI-4" target="ttmxEoekRQ3XpxWOoWBI-3">
          <mxGeometry relative="1" as="geometry" />
        </mxCell>
        <mxCell id="ttmxEoekRQ3XpxWOoWBI-4" value="Cliente" style="whiteSpace=wrap;html=1;align=center;fontFamily=Helvetica;fontSize=11;fontColor=default;labelBackgroundColor=default;" vertex="1" parent="1">
          <mxGeometry x="50" y="390" width="110" height="50" as="geometry" />
        </mxCell>
        <mxCell id="ttmxEoekRQ3XpxWOoWBI-7" value="Telefone" style="ellipse;whiteSpace=wrap;html=1;align=left;fontFamily=Helvetica;fontSize=11;fontColor=default;labelBackgroundColor=default;spacingLeft=20;" vertex="1" parent="1">
          <mxGeometry x="110" y="450" width="20" height="20" as="geometry" />
        </mxCell>
        <mxCell id="ttmxEoekRQ3XpxWOoWBI-8" value="Nome" style="ellipse;whiteSpace=wrap;html=1;align=left;fontFamily=Helvetica;fontSize=11;fontColor=default;labelBackgroundColor=default;spacingLeft=20;" vertex="1" parent="1">
          <mxGeometry x="20" y="450" width="20" height="20" as="geometry" />
        </mxCell>
        <mxCell id="ttmxEoekRQ3XpxWOoWBI-17" style="edgeStyle=none;shape=connector;rounded=0;orthogonalLoop=1;jettySize=auto;html=1;entryX=1;entryY=1;entryDx=0;entryDy=0;strokeColor=default;align=center;verticalAlign=middle;fontFamily=Helvetica;fontSize=11;fontColor=default;labelBackgroundColor=default;endArrow=none;endFill=0;" edge="1" parent="1" source="ttmxEoekRQ3XpxWOoWBI-10" target="ttmxEoekRQ3XpxWOoWBI-4">
          <mxGeometry relative="1" as="geometry" />
        </mxCell>
        <mxCell id="ttmxEoekRQ3XpxWOoWBI-10" value="Data de nascimento" style="ellipse;whiteSpace=wrap;html=1;align=left;fontFamily=Helvetica;fontSize=11;fontColor=default;labelBackgroundColor=default;spacingLeft=20;" vertex="1" parent="1">
          <mxGeometry x="200" y="450" width="20" height="20" as="geometry" />
        </mxCell>
        <mxCell id="ttmxEoekRQ3XpxWOoWBI-18" style="edgeStyle=none;shape=connector;rounded=0;orthogonalLoop=1;jettySize=auto;html=1;entryX=1;entryY=0.75;entryDx=0;entryDy=0;strokeColor=default;align=center;verticalAlign=middle;fontFamily=Helvetica;fontSize=11;fontColor=default;labelBackgroundColor=default;endArrow=none;endFill=0;" edge="1" parent="1" source="ttmxEoekRQ3XpxWOoWBI-11" target="ttmxEoekRQ3XpxWOoWBI-4">
          <mxGeometry relative="1" as="geometry" />
        </mxCell>
        <mxCell id="ttmxEoekRQ3XpxWOoWBI-11" value="CPF" style="ellipse;whiteSpace=wrap;html=1;align=left;fontFamily=Helvetica;fontSize=11;fontColor=default;labelBackgroundColor=default;spacingLeft=20;" vertex="1" parent="1">
          <mxGeometry x="220" y="420" width="20" height="20" as="geometry" />
        </mxCell>
        <mxCell id="ttmxEoekRQ3XpxWOoWBI-15" style="edgeStyle=none;shape=connector;rounded=0;orthogonalLoop=1;jettySize=auto;html=1;entryX=0.618;entryY=0.94;entryDx=0;entryDy=0;entryPerimeter=0;strokeColor=default;align=center;verticalAlign=middle;fontFamily=Helvetica;fontSize=11;fontColor=default;labelBackgroundColor=default;endArrow=none;endFill=0;" edge="1" parent="1" source="ttmxEoekRQ3XpxWOoWBI-7" target="ttmxEoekRQ3XpxWOoWBI-4">
          <mxGeometry relative="1" as="geometry" />
        </mxCell>
        <mxCell id="ttmxEoekRQ3XpxWOoWBI-16" style="edgeStyle=none;shape=connector;rounded=0;orthogonalLoop=1;jettySize=auto;html=1;entryX=0.073;entryY=1.04;entryDx=0;entryDy=0;entryPerimeter=0;strokeColor=default;align=center;verticalAlign=middle;fontFamily=Helvetica;fontSize=11;fontColor=default;labelBackgroundColor=default;endArrow=none;endFill=0;" edge="1" parent="1" source="ttmxEoekRQ3XpxWOoWBI-8" target="ttmxEoekRQ3XpxWOoWBI-4">
          <mxGeometry relative="1" as="geometry" />
        </mxCell>
        <mxCell id="ttmxEoekRQ3XpxWOoWBI-20" style="edgeStyle=none;shape=connector;rounded=0;orthogonalLoop=1;jettySize=auto;html=1;entryX=0.45;entryY=1.067;entryDx=0;entryDy=0;entryPerimeter=0;strokeColor=default;align=center;verticalAlign=middle;fontFamily=Helvetica;fontSize=11;fontColor=default;labelBackgroundColor=default;endArrow=none;endFill=0;" edge="1" parent="1" source="ttmxEoekRQ3XpxWOoWBI-3" target="ttmxEoekRQ3XpxWOoWBI-1">
          <mxGeometry relative="1" as="geometry" />
        </mxCell>
        <mxCell id="ttmxEoekRQ3XpxWOoWBI-21" value="Escolhe" style="shape=rhombus;perimeter=rhombusPerimeter;whiteSpace=wrap;html=1;align=center;fontFamily=Helvetica;fontSize=11;fontColor=default;labelBackgroundColor=default;" vertex="1" parent="1">
          <mxGeometry x="330" y="330" width="120" height="60" as="geometry" />
        </mxCell>
        <mxCell id="ttmxEoekRQ3XpxWOoWBI-22" value="Casal" style="rounded=1;arcSize=10;whiteSpace=wrap;html=1;align=center;fontFamily=Helvetica;fontSize=11;fontColor=default;labelBackgroundColor=default;" vertex="1" parent="1">
          <mxGeometry x="490" y="380" width="100" height="40" as="geometry" />
        </mxCell>
        <mxCell id="ttmxEoekRQ3XpxWOoWBI-23" value="Quarto Simples" style="rounded=1;arcSize=10;whiteSpace=wrap;html=1;align=center;fontFamily=Helvetica;fontSize=11;fontColor=default;labelBackgroundColor=default;" vertex="1" parent="1">
          <mxGeometry x="480" y="250" width="100" height="40" as="geometry" />
        </mxCell>
        <mxCell id="ttmxEoekRQ3XpxWOoWBI-24" value="TV a cabo ou normal" style="ellipse;whiteSpace=wrap;html=1;align=left;fontFamily=Helvetica;fontSize=11;fontColor=default;labelBackgroundColor=default;spacingLeft=20;" vertex="1" parent="1">
          <mxGeometry x="600" y="320" width="20" height="20" as="geometry" />
        </mxCell>
        <mxCell id="ttmxEoekRQ3XpxWOoWBI-25" value="Com ou sem banheira" style="ellipse;whiteSpace=wrap;html=1;align=left;fontFamily=Helvetica;fontSize=11;fontColor=default;labelBackgroundColor=default;spacingLeft=20;" vertex="1" parent="1">
          <mxGeometry x="600" y="270" width="20" height="20" as="geometry" />
        </mxCell>
        <mxCell id="ttmxEoekRQ3XpxWOoWBI-26" value="&amp;nbsp;Uma a três camas" style="ellipse;whiteSpace=wrap;html=1;align=left;fontFamily=Helvetica;fontSize=11;fontColor=default;labelBackgroundColor=default;spacingLeft=20;" vertex="1" parent="1">
          <mxGeometry x="600" y="220" width="20" height="20" as="geometry" />
        </mxCell>
        <mxCell id="ttmxEoekRQ3XpxWOoWBI-30" value="Telefone" style="ellipse;whiteSpace=wrap;html=1;align=left;fontFamily=Helvetica;fontSize=11;fontColor=default;labelBackgroundColor=default;spacingLeft=20;" vertex="1" parent="1">
          <mxGeometry x="460" y="440" width="20" height="20" as="geometry" />
        </mxCell>
        <mxCell id="ttmxEoekRQ3XpxWOoWBI-31" value="Telefone" style="ellipse;whiteSpace=wrap;html=1;align=left;fontFamily=Helvetica;fontSize=11;fontColor=default;labelBackgroundColor=default;spacingLeft=20;" vertex="1" parent="1">
          <mxGeometry x="510" y="460" width="20" height="20" as="geometry" />
        </mxCell>
        <mxCell id="ttmxEoekRQ3XpxWOoWBI-32" value="Telefone" style="ellipse;whiteSpace=wrap;html=1;align=left;fontFamily=Helvetica;fontSize=11;fontColor=default;labelBackgroundColor=default;spacingLeft=20;" vertex="1" parent="1">
          <mxGeometry x="570" y="460" width="20" height="20" as="geometry" />
        </mxCell>
        <mxCell id="ttmxEoekRQ3XpxWOoWBI-33" value="Telefone" style="ellipse;whiteSpace=wrap;html=1;align=left;fontFamily=Helvetica;fontSize=11;fontColor=default;labelBackgroundColor=default;spacingLeft=20;" vertex="1" parent="1">
          <mxGeometry x="640" y="430" width="20" height="20" as="geometry" />
        </mxCell>
        <mxCell id="ttmxEoekRQ3XpxWOoWBI-34" value="Telefone" style="ellipse;whiteSpace=wrap;html=1;align=left;fontFamily=Helvetica;fontSize=11;fontColor=default;labelBackgroundColor=default;spacingLeft=20;" vertex="1" parent="1">
          <mxGeometry x="640" y="380" width="20" height="20" as="geometry" />
        </mxCell>
      </root>
    </mxGraphModel>
  </diagram>
</mxfile>
